<?xml version="1.0" encoding="UTF-8" standalone="no"?>
<svg
   xmlns:dc="http://purl.org/dc/elements/1.1/"
   xmlns:cc="http://creativecommons.org/ns#"
   xmlns:rdf="http://www.w3.org/1999/02/22-rdf-syntax-ns#"
   xmlns:svg="http://www.w3.org/2000/svg"
   xmlns="http://www.w3.org/2000/svg"
   xmlns:sodipodi="http://sodipodi.sourceforge.net/DTD/sodipodi-0.dtd"
   xmlns:inkscape="http://www.inkscape.org/namespaces/inkscape"
   height="32px"
   version="1.1"
   viewBox="0 0 32 32"
   width="32px"
   id="svg3757"
   sodipodi:docname="logo.svg"
   inkscape:version="0.92.2 (5c3e80d, 2017-08-06)">
  <metadata
     id="metadata3761">
    <rdf:RDF>
      <cc:Work
         rdf:about="">
        <dc:format>image/svg+xml</dc:format>
        <dc:type
           rdf:resource="http://purl.org/dc/dcmitype/StillImage" />
        <dc:title></dc:title>
      </cc:Work>
    </rdf:RDF>
  </metadata>
  <sodipodi:namedview
     pagecolor="#ffffff"
     bordercolor="#666666"
     borderopacity="1"
     objecttolerance="10"
     gridtolerance="10"
     guidetolerance="10"
     inkscape:pageopacity="0"
     inkscape:pageshadow="2"
     inkscape:window-width="1920"
     inkscape:window-height="1026"
     id="namedview3759"
     showgrid="false"
     inkscape:zoom="18.340582"
     inkscape:cx="23.135541"
     inkscape:cy="18.709686"
     inkscape:window-x="0"
     inkscape:window-y="28"
     inkscape:window-maximized="1"
     inkscape:current-layer="svg3757" />
  <defs
     id="defs3752" />
  <g
     fill="none"
     fill-rule="evenodd"
     id="Icons new Arranged Names"
     stroke="none"
     stroke-width="1"
     style="fill:#003fff;fill-opacity:1">
    <g
       fill="#000000"
       id="27 Cloud"
       style="fill:#003fff;fill-opacity:1">
      <path
         d="M0,19 C0,16.7828376 1.20753986,14.8416411 3.00211353,13.8029948 C3.10690617,8.92340284 7.0952729,5 12,5 C15.2334975,5 18.0687212,6.7052115 19.6554697,9.26543304 C20.2402063,9.09270499 20.8592769,9 21.5,9 C24.2845531,9 26.6601501,10.7509485 27.5858427,13.2118973 C30.129704,13.9074543 32,16.2353674 32,19 C32,22.3069658 29.3136299,25 25.9998243,25 L6.00017566,25 C2.68697795,25 0,22.3137085 0,19 Z M25.9725356,15 C25.7238035,12.7500155 23.8162709,11 21.5,11 C20.4427534,11 19.4706636,11.3645993 18.7026063,11.974922 C17.8340685,9.0963276 15.1618462,7 12,7 C8.13400656,7 5,10.1340066 5,14 C5,14.3757911 5.0296122,14.7446659 5.08663046,15.1044183 C3.31778819,15.5175755 2,17.1080834 2,19 C2,21.209139 3.79412025,23 5.99683887,23 L26.0031611,23 C28.2105543,23 30,21.2046438 30,19 C30,16.790861 28.2058797,15 26.0031611,15 Z M25.9725356,15"
         id="Rectangle 1 copy 2"
         style="fill:#003fff;fill-opacity:1" />
    </g>
  </g>
  <text
     xml:space="preserve"
     style="font-style:normal;font-weight:normal;font-size:13.70536423px;line-height:1.25;font-family:sans-serif;letter-spacing:0px;word-spacing:0px;fill:#003fff;fill-opacity:1;stroke:none;stroke-width:0.34263408;"
     x="6.7838912"
     y="18.60848"
     id="text3767"><tspan
       sodipodi:role="line"
       id="tspan3765"
       x="6.7838912"
       y="30.734516"
       style="stroke-width:0.34263408;fill:#003fff;fill-opacity:1;" /></text>
  <text
     xml:space="preserve"
     style="font-style:normal;font-variant:normal;font-weight:normal;font-stretch:normal;font-size:18.4179287px;line-height:1.25;font-family:Audiowide;-inkscape-font-specification:Audiowide;letter-spacing:0px;word-spacing:0px;fill:#003fff;fill-opacity:1;stroke:none;stroke-width:0.46044818;"
     x="6.04214"
     y="17.993998"
     id="text3771"><tspan
       sodipodi:role="line"
       id="tspan3769"
       x="6.04214"
       y="17.993998"
       style="font-style:normal;font-variant:normal;font-weight:normal;font-stretch:normal;font-size:12.27861786px;font-family:Audiowide;-inkscape-font-specification:Audiowide;stroke-width:0.46044818;fill:#003fff;fill-opacity:1;">S</tspan></text>
  <text
     xml:space="preserve"
     style="font-style:normal;font-variant:normal;font-weight:normal;font-stretch:normal;font-size:12.38968563px;line-height:1.25;font-family:Audiowide;-inkscape-font-specification:Audiowide;letter-spacing:0px;word-spacing:0px;fill:#003fff;fill-opacity:1;stroke:none;stroke-width:0.30974215;"
     x="15.164192"
     y="21.713896"
     id="text3775"><tspan
       sodipodi:role="line"
       id="tspan3773"
       x="15.164192"
       y="21.713896"
       style="font-style:normal;font-variant:normal;font-weight:normal;font-stretch:normal;font-family:Audiowide;-inkscape-font-specification:Audiowide;stroke-width:0.30974215;fill:#003fff;fill-opacity:1;">R</tspan></text>
  <path
     style="fill:#ffffff;fill-opacity:1;stroke-width:0.0545239"
     d="M 5.5897516,22.956872 C 4.5145517,22.831069 3.4875928,22.255423 2.8604734,21.427018 2.3057476,20.694242 2.0451536,19.914976 2.0465042,18.99297 c 0.00102,-0.695115 0.1018971,-1.125487 0.4152136,-1.771397 0.4371901,-0.90128 1.3723656,-1.711736 2.2987731,-1.992198 l 0.3112837,-0.09424 5.693e-4,-1.099614 c 4.904e-4,-0.94717 0.016931,-1.163863 0.1185923,-1.563066 C 5.7383068,10.323036 7.0046236,8.7120732 8.8884473,7.7686139 9.9492212,7.2373556 10.770505,7.049769 12.023571,7.0525309 c 0.770444,0.0017 0.985778,0.022147 1.499408,0.142388 2.346361,0.5492853 4.235346,2.21444 5.043683,4.4460471 0.06789,0.187426 0.132694,0.340774 0.144009,0.340774 0.01131,0 0.16416,-0.09801 0.339656,-0.217804 1.27559,-0.87071 3.042966,-0.967615 4.477813,-0.245517 1.206252,0.607055 2.088482,1.769668 2.35825,3.10773 l 0.07695,0.381667 0.404474,0.03979 c 0.53065,0.05219 1.190656,0.261243 1.631261,0.516681 0.451591,0.261805 1.166595,0.977784 1.432648,1.434598 0.467743,0.803121 0.646453,1.917175 0.454662,2.834301 -0.239399,1.144779 -1.103394,2.233926 -2.184692,2.75401 -0.85119,0.409406 0.113032,0.377146 -11.507042,0.384984 -5.727735,0.0039 -10.4999389,-0.003 -10.6048974,-0.0153 z M 17.694057,18.197464 v -3.544053 h 2.660766 c 1.996786,0 2.677093,0.01633 2.726195,0.06543 0.08888,0.08888 0.08763,1.401557 -0.0016,1.700272 -0.08978,0.300476 -0.444469,0.647558 -0.777827,0.761144 -0.22672,0.07725 -0.539432,0.0903 -2.163647,0.0903 h -1.898623 v 0.817858 0.817859 l 0.586131,9.98e-4 0.586132,9.97e-4 1.635717,1.416288 1.635717,1.416288 1.2177,3.27e-4 c 0.67734,1.63e-4 1.209636,-0.02092 1.199526,-0.04757 -0.01,-0.02634 -0.68064,-0.618361 -1.49032,-1.315588 -0.80968,-0.697227 -1.516404,-1.309466 -1.570499,-1.360531 -0.09339,-0.08816 -0.07555,-0.09734 0.353693,-0.181904 1.111063,-0.218892 1.92472,-0.915667 2.241395,-1.919423 0.106163,-0.336499 0.120382,-0.50104 0.120149,-1.39036 -2.18e-4,-0.92556 -0.01059,-1.034313 -0.125609,-1.319567 C 24.4626,13.79346 24.090095,13.387863 23.702732,13.197643 l -0.310928,-0.152687 h -3.417352 c -3.37054,0 -3.419461,0.0015 -3.571315,0.112923 -0.08468,0.06211 -0.196863,0.197055 -0.249296,0.299882 -0.08822,0.173017 -0.09534,0.488844 -0.09542,4.235357 l -8.4e-5,4.048399 h 0.817858 0.817859 z m -4.580008,-0.221605 c 1.118641,-0.180576 1.9213,-0.991662 2.082707,-2.104573 0.184804,-1.274243 -0.417722,-2.335751 -1.596886,-2.813333 -0.282282,-0.114329 -0.391266,-0.120703 -2.530467,-0.148022 -2.109006,-0.02693 -2.2459536,-0.03472 -2.4206138,-0.137594 -0.2979928,-0.175524 -0.4069888,-0.36606 -0.429204,-0.750291 -0.015863,-0.274357 0.00475,-0.387667 0.106501,-0.585545 0.2318018,-0.450776 0.1199924,-0.43601 3.3021868,-0.436106 l 2.79435,-8.5e-5 V 10.182451 9.364593 l -2.739826,9.465e-4 C 8.7126846,9.3665657 8.4866863,9.3845483 7.9358451,9.6636808 7.4246061,9.922745 6.9328265,10.463033 6.7569887,10.958818 c -0.2265626,0.638806 -0.1909531,1.564194 0.082693,2.148963 0.1956322,0.418057 0.6339356,0.876371 1.0300861,1.077116 0.5670818,0.287362 0.7373943,0.304942 2.9541802,0.304942 2.017299,0 2.052603,0.0019 2.288987,0.122679 0.375756,0.192002 0.464567,0.354328 0.464567,0.849119 0,0.354436 -0.02004,0.446655 -0.130784,0.601933 -0.242974,0.340673 -0.177165,0.334606 -3.6296134,0.334606 H 6.6802295 v 0.817858 0.817859 l 3.0397072,-4.37e-4 c 1.8579763,-2.72e-4 3.1774873,-0.02265 3.3941123,-0.05762 z"
     id="path4518"
     inkscape:connector-curvature="0" />
  <path
     style="fill:#ffffff;fill-opacity:1;stroke-width:0.0545239"
     d="M 5.4517943,22.93929 C 4.2007236,22.773627 3.0328814,21.937462 2.4596576,20.796946 2.1779903,20.236527 2.0456983,19.658448 2.0456983,18.988061 c 0,-1.118503 0.3572817,-1.968354 1.1718144,-2.787347 0.4241772,-0.426501 0.56817,-0.532646 1.0108766,-0.745177 0.283933,-0.136309 0.5907541,-0.26294 0.6818246,-0.281403 l 0.1655826,-0.03357 -0.022091,-0.868027 c -0.024724,-0.971511 0.062906,-1.671513 0.2996737,-2.393823 0.9098077,-2.7755655 3.373797,-4.6746479 6.2802628,-4.8404181 3.031619,-0.1729083 5.899813,1.7310152 6.933759,4.6026681 0.06748,0.187426 0.128039,0.340774 0.134569,0.340774 0.0065,0 0.180486,-0.110746 0.38657,-0.246102 0.731299,-0.480319 1.506916,-0.70019 2.449451,-0.694366 2.136468,0.0132 3.929168,1.500316 4.354392,3.612139 l 0.07136,0.354405 0.404271,0.03728 c 0.519148,0.04788 1.18131,0.258995 1.631058,0.520028 0.454767,0.263947 1.168864,0.978043 1.432811,1.432811 0.468707,0.807559 0.64688,1.921698 0.453413,2.835242 -0.298337,1.408741 -1.434004,2.61131 -2.844588,3.012165 l -0.431995,0.122762 -10.414065,0.0074 c -5.727735,0.004 -10.56202,-0.01223 -10.742855,-0.03618 z M 17.694057,18.197464 v -3.544053 h 2.660766 c 1.996786,0 2.677093,0.01633 2.726195,0.06543 0.08888,0.08888 0.08763,1.401557 -0.0016,1.700272 -0.08978,0.300476 -0.444469,0.647558 -0.777827,0.761144 -0.22672,0.07725 -0.539432,0.0903 -2.163647,0.0903 h -1.898623 v 0.817858 0.817859 h 0.587275 0.587275 l 1.634574,1.415999 1.634573,1.415998 1.221607,0.0016 1.221608,0.0016 -0.103868,-0.114924 c -0.05713,-0.06321 -0.77449,-0.694329 -1.59414,-1.402491 -0.81965,-0.708163 -1.469847,-1.293548 -1.444883,-1.300857 0.02496,-0.0073 0.223025,-0.04955 0.440136,-0.09387 0.542029,-0.110643 1.043484,-0.362935 1.42688,-0.717892 0.661781,-0.612692 0.870052,-1.131816 0.91563,-2.282246 0.04919,-1.241677 -0.08764,-1.77564 -0.581231,-2.268049 -0.136229,-0.135904 -0.370368,-0.307654 -0.520309,-0.381667 L 23.391804,13.04496 h -3.410153 c -3.846973,0 -3.611917,-0.02628 -3.817635,0.426811 -0.09833,0.216577 -0.103339,0.420145 -0.104479,4.248613 l -0.0012,4.021133 h 0.817858 0.817859 z m -4.252864,-0.294618 c 0.451258,-0.149092 0.696016,-0.288885 0.996572,-0.569192 0.323515,-0.301719 0.469661,-0.522186 0.638196,-0.96274 0.162463,-0.424683 0.182481,-1.262338 0.0412,-1.72417 -0.20831,-0.680966 -0.799229,-1.304354 -1.500141,-1.582571 -0.301743,-0.119772 -0.386582,-0.124879 -2.547617,-0.153344 -2.1080916,-0.02777 -2.2460294,-0.03566 -2.4206138,-0.138492 -0.2979928,-0.175524 -0.4069888,-0.36606 -0.429204,-0.750291 -0.015863,-0.274357 0.00475,-0.387667 0.106501,-0.585545 0.2318018,-0.450776 0.1199924,-0.43601 3.3021868,-0.436106 l 2.79435,-8.5e-5 V 10.179009 9.3577074 l -2.903398,0.019343 C 8.7288439,9.3956401 8.60397,9.4008468 8.3111936,9.5108115 7.8469089,9.6851936 7.7012887,9.772597 7.3688702,10.076409 7.1535997,10.273154 7.002153,10.478959 6.8579819,10.77067 6.6639933,11.163179 6.6520254,11.218064 6.6335555,11.7999 c -0.016098,0.5071 5.07e-4,0.680521 0.094938,0.991406 0.1514656,0.498667 0.4958505,0.961653 0.9319052,1.25284 0.6083335,0.406229 0.6283792,0.409084 3.1091233,0.442876 2.080146,0.02833 2.218955,0.0364 2.393352,0.139127 0.332877,0.196072 0.414628,0.362701 0.414628,0.84512 0,0.487826 -0.08848,0.666028 -0.412804,0.831405 -0.171596,0.0875 -0.445701,0.09534 -3.3357133,0.09542 l -3.148755,8.5e-5 v 0.821006 0.821006 l 3.2305409,-0.01913 c 2.9443614,-0.01744 3.2571054,-0.02791 3.5304224,-0.11821 z"
     id="path4520"
     inkscape:connector-curvature="0" />
  <path
     style="fill:#ffffff;fill-opacity:1;stroke-width:0.0545239"
     d="m 5.4807038,22.942683 c -0.7339678,-0.09709 -1.43237,-0.4062 -2.0281846,-0.897656 -0.9109413,-0.751386 -1.4068209,-1.828914 -1.4068209,-3.056966 0,-1.118503 0.3572817,-1.968354 1.1718144,-2.787347 0.4241772,-0.426501 0.56817,-0.532646 1.0108766,-0.745177 0.283933,-0.136309 0.5898492,-0.262751 0.6798136,-0.280981 l 0.1635717,-0.03315 5.725e-4,-1.10275 c 6.156e-4,-1.185318 0.03142,-1.407392 0.3117939,-2.24775 C 6.1164653,9.5959272 7.9584479,7.8600885 10.188663,7.2632436 13.679735,6.3289714 17.344219,8.2438 18.567617,11.641558 l 0.122913,0.341366 0.169681,-0.111131 c 0.735474,-0.48169 1.390928,-0.72986 2.156816,-0.816621 1.075264,-0.121807 2.214307,0.183538 3.13472,0.840331 0.868002,0.619394 1.547639,1.694429 1.743548,2.757908 l 0.06529,0.354405 0.390958,0.0352 c 0.954272,0.08591 1.732292,0.456224 2.442617,1.162595 0.402987,0.400744 0.537579,0.578751 0.722761,0.9559 1.008713,2.054389 0.23872,4.412471 -1.763203,5.399761 -0.900207,0.443956 0.177451,0.405301 -11.531804,0.413644 -5.742729,0.0041 -10.5762724,-0.01041 -10.7412072,-0.03223 z M 17.694057,18.197464 v -3.544053 h 2.664995 c 2.273116,0 2.674735,0.01174 2.731235,0.07981 0.04742,0.05714 0.06094,0.311447 0.04757,0.895087 -0.01847,0.806426 -0.02046,0.817824 -0.183929,1.050267 -0.09089,0.129246 -0.285201,0.309181 -0.431798,0.399854 l -0.26654,0.164862 -2.008146,0.01614 -2.008146,0.01614 v 0.815349 0.815349 h 0.59039 0.590391 l 1.631458,1.415328 1.631458,1.415327 1.219833,0.0023 c 1.079163,0.002 1.211993,-0.0072 1.151845,-0.07963 -0.03739,-0.04506 -0.753769,-0.675763 -1.591946,-1.401571 l -1.52396,-1.319653 0.483461,-0.118592 c 1.16098,-0.284786 1.918315,-0.959776 2.216625,-1.975613 0.116906,-0.3981 0.170191,-1.569946 0.09532,-2.096347 -0.10243,-0.720193 -0.451203,-1.23332 -1.054259,-1.551063 L 23.391802,13.044951 H 20.01132 c -3.128983,0 -3.393596,0.0072 -3.556761,0.09634 -0.38592,0.210911 -0.367241,-0.009 -0.384249,4.52456 l -0.01529,4.075661 h 0.819518 0.819518 z m -4.212073,-0.313895 c 0.939375,-0.305514 1.565831,-1.05117 1.703831,-2.028032 0.113831,-0.805775 -0.09773,-1.56137 -0.582258,-2.079547 -0.33209,-0.355154 -0.651037,-0.575112 -1.044165,-0.720098 -0.288667,-0.106461 -0.454561,-0.115966 -2.517251,-0.14424 C 8.9621871,12.883142 8.8231697,12.875052 8.6487892,12.772337 8.3415508,12.591367 8.2397476,12.406461 8.220059,11.993628 8.205591,11.690268 8.224179,11.589864 8.3282448,11.409239 8.5701324,10.989401 8.4806255,11.00049 11.628273,11.000395 l 2.79435,-8.5e-5 V 10.177231 9.354152 l -2.876136,0.022979 c -2.727803,0.021793 -2.893705,0.028796 -3.2168082,0.135781 -0.6840017,0.2264844 -1.1756724,0.658262 -1.5003311,1.317567 -0.1714584,0.348192 -0.1763801,0.378 -0.1763801,1.068236 0,0.566396 0.021008,0.765205 0.1038388,0.982669 0.3216318,0.844416 1.0661218,1.439944 1.9408073,1.552477 0.2249111,0.02894 1.2563478,0.05337 2.2920813,0.05429 1.843747,0.0016 1.888176,0.0043 2.12324,0.124362 0.377835,0.193064 0.464567,0.353389 0.464567,0.858751 0,0.487826 -0.08848,0.666028 -0.412804,0.831405 -0.171596,0.0875 -0.445701,0.09534 -3.3357135,0.09542 l -3.148755,8.5e-5 v 0.82448 0.82448 l 3.2305409,-0.02638 c 3.0594336,-0.02499 3.2485846,-0.03225 3.5712136,-0.137182 z"
     id="path4522"
     inkscape:connector-curvature="0" />
  <path
     style="fill:#ffffff;fill-opacity:1;stroke-width:0.0545239"
     d="M 5.400866,22.935438 C 3.9387905,22.720009 2.696142,21.660881 2.2088648,20.214848 2.038324,19.708755 1.9975599,18.691779 2.1248764,18.119516 2.2711819,17.4619 2.6294891,16.806819 3.1330504,16.276304 3.6037448,15.780415 3.9557,15.543576 4.6199043,15.275765 l 0.439647,-0.177267 -0.0098,-0.8632 c -0.00539,-0.474759 0.017537,-1.056737 0.050953,-1.293285 C 5.298818,11.539558 6.0075415,10.146018 7.0605747,9.0883811 9.8469502,6.2898235 14.368671,6.3477264 17.072546,9.2165895 c 0.647222,0.6867147 1.128671,1.4606445 1.490488,2.3959575 l 0.141924,0.366879 0.326039,-0.217072 c 0.722882,-0.481284 1.541712,-0.722518 2.45247,-0.722518 0.965165,0 1.693654,0.219947 2.517483,0.760085 0.965791,0.633215 1.714301,1.766049 1.90343,2.880752 0.05029,0.296398 0.109126,0.354405 0.359472,0.354405 0.38417,0 0.988726,0.167769 1.51539,0.420532 0.441542,0.211909 0.588459,0.319977 1.01532,0.746839 0.426862,0.426862 0.53493,0.573778 0.74684,1.01532 0.302416,0.630122 0.420531,1.139408 0.420531,1.813226 0,1.513159 -0.848435,2.857138 -2.24889,3.562396 -0.797668,0.4017 0.138659,0.370739 -11.518394,0.380867 -5.788608,0.005 -10.6139662,-0.01233 -10.793783,-0.03882 z m 12.293191,-4.737974 v -3.544053 h 2.664995 c 2.273116,0 2.674735,0.01174 2.731235,0.07981 0.04742,0.05714 0.06094,0.311447 0.04757,0.895087 -0.01847,0.806426 -0.02046,0.817824 -0.183929,1.050267 -0.09089,0.129246 -0.285201,0.309181 -0.431798,0.399854 l -0.26654,0.164862 -2.008146,0.01614 -2.008146,0.01614 v 0.815349 0.815349 h 0.593245 0.593246 l 1.628603,1.414906 1.628603,1.414906 1.185895,0.0027 c 0.652242,0.0015 1.185895,-0.01848 1.185895,-0.04438 0,-0.0259 -0.699784,-0.65514 -1.555074,-1.398304 -0.855291,-0.743164 -1.547872,-1.35841 -1.53907,-1.367212 0.0088,-0.0088 0.199469,-0.05396 0.423703,-0.100345 1.035309,-0.214172 1.841243,-0.872082 2.188805,-1.786792 0.259783,-0.683692 0.245272,-2.362867 -0.0255,-2.950816 -0.158239,-0.343597 -0.51553,-0.709914 -0.865292,-0.887153 l -0.259665,-0.131582 h -3.412264 c -3.803083,0 -3.658972,-0.01397 -3.833457,0.371658 -0.08166,0.180478 -0.09266,0.611341 -0.10848,4.249242 l -0.0176,4.048399 h 0.821585 0.821585 z m -5.506914,-0.214959 c 1.29324,-0.04764 1.442098,-0.08057 1.969568,-0.435693 0.766618,-0.516128 1.130238,-1.399714 1.01889,-2.475875 -0.07929,-0.766302 -0.580148,-1.481294 -1.304192,-1.861768 -0.498107,-0.261748 -0.863682,-0.297028 -3.101887,-0.299349 -1.7953806,-0.0019 -2.0520474,-0.02863 -2.2834,-0.238126 -0.4390689,-0.397591 -0.3464186,-1.322913 0.1577895,-1.575883 0.1734945,-0.08704 0.4329246,-0.09534 2.9843615,-0.09542 l 2.79435,-8.5e-5 V 10.174918 9.3495258 l -2.876136,0.027665 c -2.7859173,0.026797 -2.88716,0.031441 -3.2275985,0.1480235 -1.0116966,0.3464551 -1.6168933,1.1273517 -1.678877,2.1662867 -0.065041,1.090172 0.3090614,1.89329 1.1224296,2.409617 0.5197196,0.329919 0.6453688,0.345757 3.0343429,0.382468 2.049323,0.03149 2.19213,0.0401 2.36609,0.142563 0.332877,0.196072 0.414628,0.362701 0.414628,0.84512 0,0.487826 -0.08848,0.666028 -0.412804,0.831405 -0.171596,0.0875 -0.445701,0.09534 -3.3357135,0.09542 l -3.148755,8.5e-5 v 0.817858 0.817859 l 2.1673249,-0.0041 c 1.1920286,-0.0023 2.6948436,-0.02353 3.3395886,-0.04729 z"
     id="path4524"
     inkscape:connector-curvature="0" />
  <path
     style="fill:#ffffff;fill-opacity:1;stroke-width:0.0545239"
     d="M 5.400866,22.935438 C 3.8381618,22.705182 2.4848234,21.457564 2.1244452,19.914967 1.9886162,19.333552 2.0362132,18.303289 2.2241861,17.756019 2.4374732,17.135048 2.7208574,16.694722 3.2404508,16.176934 3.7189953,15.700053 4.2705051,15.35577 4.8127861,15.195396 l 0.2317265,-0.06853 V 14.18847 c 0,-1.057541 0.080684,-1.64336 0.3280152,-2.381593 0.7503267,-2.2395759 2.5990304,-3.9701391 4.8766092,-4.564972 1.310465,-0.3422527 2.842138,-0.2718517 4.118962,0.1893216 1.85989,0.6717698 3.358684,2.1214323 4.11693,3.9819734 l 0.229006,0.561921 0.287499,-0.193613 c 0.751759,-0.506265 1.521665,-0.736191 2.481933,-0.741211 0.990885,-0.0052 1.6795,0.201506 2.514783,0.754806 0.938216,0.621483 1.580354,1.546781 1.867865,2.691525 0.06358,0.253133 0.146259,0.479713 0.183739,0.503512 0.03748,0.0238 0.16472,0.04365 0.282757,0.0441 0.356469,0.0014 0.901378,0.1602 1.446631,0.421619 0.441808,0.211822 0.588202,0.319468 1.01532,0.746587 0.426862,0.426862 0.53493,0.573778 0.74684,1.01532 0.302416,0.630122 0.420531,1.139408 0.420531,1.813226 0,1.52009 -0.84202,2.853908 -2.24889,3.562396 -0.797668,0.4017 0.138659,0.370739 -11.518394,0.380867 -5.788608,0.005 -10.6139662,-0.01233 -10.793783,-0.03882 z m 12.293191,-4.737974 v -3.544053 h 2.664995 c 2.273116,0 2.674735,0.01174 2.731235,0.07981 0.04742,0.05714 0.06094,0.311447 0.04757,0.895087 -0.01847,0.806426 -0.02046,0.817824 -0.183929,1.050267 -0.09089,0.129246 -0.285207,0.309181 -0.431813,0.399854 l -0.266555,0.164862 -2.008131,0.01555 -2.008131,0.01555 v 0.81594 0.81594 h 0.596992 0.596993 l 1.635023,1.417621 1.635024,1.417621 1.107572,-8.34e-4 c 0.609165,-4.36e-4 1.137926,-0.02011 1.175023,-0.04368 0.04516,-0.02868 -0.445808,-0.489902 -1.485776,-1.395742 -0.854274,-0.744097 -1.553226,-1.359909 -1.553226,-1.368473 0,-0.0086 0.190152,-0.0569 0.42256,-0.107411 1.186077,-0.257787 2.049098,-1.046992 2.280772,-2.085694 0.06825,-0.30599 0.08345,-0.611977 0.06772,-1.363097 -0.01773,-0.846501 -0.03496,-1.000658 -0.136761,-1.223472 -0.152444,-0.333658 -0.519246,-0.726744 -0.861153,-0.922863 l -0.273733,-0.157014 -3.380482,0.0026 c -2.470219,0.0019 -3.431867,0.02009 -3.571315,0.06764 -0.137716,0.04696 -0.220909,0.125785 -0.298881,0.283173 -0.104193,0.210317 -0.108778,0.362497 -0.12856,4.266495 l -0.02051,4.0484 h 0.823741 0.82374 V 18.197466 Z M 13.25958,17.918525 c 0.921751,-0.170394 1.677194,-0.916078 1.878363,-1.854096 0.03421,-0.159529 0.0503,-0.52139 0.03619,-0.814288 -0.02141,-0.44461 -0.05211,-0.584283 -0.196067,-0.891905 -0.226288,-0.483566 -0.701309,-0.959811 -1.181453,-1.184498 -0.466099,-0.218114 -0.955154,-0.259489 -3.108879,-0.263019 -1.7101067,-0.0028 -1.9721671,-0.03125 -2.201614,-0.239025 -0.4390689,-0.397591 -0.3464186,-1.322913 0.1577895,-1.575883 0.1734945,-0.08704 0.4329246,-0.09534 2.9843615,-0.09542 l 2.79435,-8.5e-5 V 10.182451 9.364593 l -1.785658,0.00428 c -0.982109,0.00235 -2.326253,0.021633 -2.9869837,0.04285 L 8.448651,9.4502991 8.0352688,9.6466135 C 6.9512547,10.16141 6.4408421,11.248941 6.6805174,12.533168 c 0.1333762,0.714656 0.6508946,1.371668 1.3312069,1.690024 0.4553852,0.213101 1.0741317,0.263611 3.2505907,0.265356 1.561393,0.0013 1.617858,0.005 1.85062,0.12397 0.377835,0.193064 0.464567,0.353389 0.464567,0.858751 0,0.487826 -0.08848,0.666028 -0.412804,0.831405 -0.171596,0.0875 -0.445701,0.09534 -3.3357135,0.09542 l -3.148755,8.5e-5 v 0.826696 0.826697 l 3.1332544,-0.03761 c 1.7971451,-0.02157 3.2666591,-0.06227 3.4460961,-0.09544 z"
     id="path4526"
     inkscape:connector-curvature="0" />
  <path
     style="fill:#ffffff;fill-opacity:1;stroke-width:0.0545239"
     d="M 5.4249677,22.942401 C 3.8834715,22.743409 2.4653024,21.441279 2.1252128,19.912642 1.9802186,19.260921 2.0317294,18.311229 2.2452075,17.700329 2.643177,16.561477 3.7087497,15.521904 4.8127861,15.195396 l 0.2317265,-0.06853 V 14.18847 c 0,-1.061119 0.080638,-1.643221 0.3312596,-2.391277 C 6.1782805,9.4018646 8.229146,7.6152653 10.74226,7.1222081 c 0.576706,-0.1131462 2.06432,-0.097192 2.644409,0.02836 2.333344,0.5050216 4.200833,2.0644848 5.099844,4.2586709 0.110583,0.269893 0.207901,0.498232 0.216263,0.507419 0.0084,0.0092 0.232599,-0.108102 0.498304,-0.260641 1.77528,-1.019178 3.884829,-0.788683 5.370511,0.586797 0.623284,0.57705 1.072924,1.353542 1.300951,2.246638 0.06502,0.254656 0.146846,0.481223 0.181837,0.503484 0.03499,0.02226 0.161763,0.04121 0.281715,0.04211 0.372697,0.0028 0.905489,0.157087 1.443148,0.417899 0.44025,0.213559 0.588987,0.323632 1.010424,0.747765 0.791112,0.796173 1.108661,1.516569 1.157298,2.625463 0.0242,0.551749 0.01045,0.729342 -0.08655,1.117739 -0.2998,1.200439 -1.064793,2.122483 -2.225948,2.682927 -0.799112,0.385701 -0.250859,0.368754 -11.685173,0.361189 -5.622777,-0.0037 -10.3587228,-0.02425 -10.5243243,-0.04563 z M 17.694057,18.197464 v -3.544053 h 2.660766 c 1.996786,0 2.677093,0.01633 2.726195,0.06543 0.08266,0.08267 0.08929,1.400387 0.0085,1.691274 -0.07582,0.27299 -0.282644,0.506911 -0.618539,0.699566 l -0.278706,0.159855 -1.976491,4.9e-4 -1.976491,5.33e-4 v 0.817858 0.817859 h 0.600492 0.600492 l 1.632182,1.417621 1.632182,1.417621 1.052391,-0.0038 c 0.578815,-0.0021 1.097066,-0.02144 1.15167,-0.04296 0.12225,-0.04818 0.02594,-0.141182 -1.730645,-1.671136 l -1.249697,-1.088466 0.186481,-0.0456 c 1.396847,-0.341599 2.133589,-0.918941 2.483404,-1.946104 0.148951,-0.437363 0.150398,-2.287852 0.0021,-2.713193 -0.127773,-0.366527 -0.54961,-0.832548 -0.921252,-1.017745 l -0.281462,-0.140258 h -3.225856 c -1.774222,0 -3.33968,0.0156 -3.478797,0.03467 -0.283595,0.03887 -0.492087,0.207249 -0.549468,0.443749 -0.01983,0.08173 -0.05035,1.958119 -0.06782,4.169744 l -0.03177,4.021137 h 0.825058 0.825059 z m -4.529497,-0.27398 c 0.923305,-0.125594 1.694748,-0.827109 1.947171,-1.770666 0.109839,-0.410577 0.0938,-1.097419 -0.0354,-1.515719 -0.198038,-0.641172 -0.742373,-1.231795 -1.394548,-1.513136 -0.359022,-0.154878 -1.17921,-0.211539 -3.092578,-0.213647 -1.7124349,-0.0019 -1.9196066,-0.0313 -2.1615624,-0.306869 -0.3927934,-0.447368 -0.250721,-1.318695 0.2490673,-1.52752 0.1462838,-0.06112 0.714371,-0.07562 2.9634471,-0.07562 h 2.78247 V 10.182451 9.364593 l -1.567562,0.00433 C 11.992906,9.371303 10.649573,9.390931 9.8698815,9.412532 L 8.4522561,9.4518109 8.0407556,9.650289 c -1.0424952,0.502824 -1.5491136,1.509455 -1.3718328,2.725777 0.083679,0.57412 0.2767976,0.968393 0.6650281,1.357726 0.3441957,0.345175 0.7027334,0.54719 1.1455672,0.64546 0.1909612,0.04238 1.0490278,0.07738 2.3624449,0.09637 1.958329,0.02832 2.073897,0.03563 2.286812,0.144699 0.361613,0.18524 0.448727,0.350438 0.448727,0.850945 0,0.487826 -0.08848,0.666028 -0.412804,0.831405 -0.171596,0.0875 -0.445701,0.09534 -3.3357135,0.09542 l -3.148755,8.5e-5 v 0.825163 0.825164 l 3.0669692,-0.03868 c 1.6868333,-0.02127 3.2246453,-0.06013 3.4173613,-0.08634 z"
     id="path4528"
     inkscape:connector-curvature="0" />
  <path
     style="fill:#ffffff;fill-opacity:1;stroke-width:0.0545239"
     d="M 5.3989179,22.938538 C 3.8694391,22.736561 2.4643462,21.436982 2.12466,19.910157 1.9784159,19.252818 2.03437,18.255173 2.2500982,17.673621 c 0.3999079,-1.078056 1.2646671,-1.969864 2.3129987,-2.385349 0.2000376,-0.07928 0.3872219,-0.144146 0.4159652,-0.144146 0.030852,0 0.06399,-0.485802 0.080893,-1.185895 0.030429,-1.260309 0.078634,-1.556256 0.38647,-2.372671 0.6239975,-1.6549102 1.8962617,-3.0719488 3.4599341,-3.8536496 1.8719848,-0.93583 4.3079158,-0.93583 6.1799008,0 1.539869,0.7698014 2.794823,2.1367581 3.426081,3.7318526 0.09494,0.239905 0.180051,0.443708 0.189131,0.452895 0.0091,0.0092 0.233903,-0.108102 0.499608,-0.260641 0.888446,-0.510052 1.841414,-0.71657 2.790451,-0.604721 1.899086,0.223817 3.395466,1.541069 3.874071,3.410312 0.123277,0.481472 0.203401,0.57347 0.499454,0.57347 0.338183,0 1.017039,0.2037 1.486078,0.445919 0.675543,0.34886 1.352026,1.041697 1.694086,1.735037 0.303828,0.615848 0.414484,1.096036 0.415767,1.804198 0.0028,1.560695 -0.826967,2.857286 -2.304743,3.601274 -0.777109,0.391236 -0.234183,0.374224 -11.706952,0.366826 -5.622777,-0.0036 -10.370445,-0.02603 -10.5503739,-0.04979 z M 17.694057,18.197464 v -3.544053 h 2.660766 c 1.996786,0 2.677093,0.01633 2.726195,0.06543 0.04458,0.04458 0.06543,0.305723 0.06543,0.819609 0,1.011116 -0.07109,1.183723 -0.638036,1.549247 l -0.283632,0.182862 h -1.992741 -1.992741 v 0.817858 0.817859 h 0.601586 0.601586 l 1.635187,1.417621 1.635188,1.417621 h 0.946059 c 1.001706,0 1.303114,-0.03079 1.271933,-0.12992 -0.01054,-0.0335 -0.648603,-0.612968 -1.417921,-1.287701 -0.769318,-0.674733 -1.438487,-1.266568 -1.487043,-1.315188 -0.08139,-0.0815 -0.05706,-0.09579 0.311681,-0.183049 0.988818,-0.234 1.721716,-0.767188 2.089379,-1.520037 0.251512,-0.515013 0.320183,-0.998723 0.289015,-2.035809 -0.02398,-0.798016 -0.03132,-0.841518 -0.19944,-1.183024 -0.191229,-0.388441 -0.523115,-0.719878 -0.906884,-0.905658 -0.233117,-0.112849 -0.278734,-0.114078 -3.637155,-0.09797 -3.186638,0.01529 -3.410662,0.0226 -3.553108,0.115974 -0.311418,0.204136 -0.30535,0.124533 -0.343662,4.508143 l -0.03526,4.034236 h 0.826809 0.82681 z M 13.080578,17.92151 c 0.244517,-0.02843 0.556864,-0.108079 0.724144,-0.184663 0.361859,-0.165664 0.879152,-0.649684 1.070933,-1.00205 0.411226,-0.755558 0.411652,-1.855271 9.87e-4,-2.556014 -0.182005,-0.310568 -0.603005,-0.734322 -0.905908,-0.911835 -0.478221,-0.280256 -0.76198,-0.312638 -3.071345,-0.350495 -2.0465834,-0.03355 -2.1457995,-0.03994 -2.2898369,-0.147485 -0.2845967,-0.212495 -0.370733,-0.38349 -0.3905666,-0.77534 -0.021722,-0.429165 0.082497,-0.6747 0.3695499,-0.870639 L 8.7682641,11.00031 h 2.8271789 2.82718 V 10.174531 9.3487527 l -2.842576,0.040076 C 8.4951027,9.4323215 8.3822458,9.4431667 7.8508657,9.7471914 7.4766404,9.9613014 7.033489,10.439372 6.8619785,10.814 c -0.3053978,0.667077 -0.2938166,1.597041 0.028465,2.285742 0.2991807,0.639334 0.9367658,1.144121 1.6163363,1.27968 0.1499408,0.02991 1.2017084,0.07096 2.3372612,0.09123 1.946534,0.03474 2.07735,0.04336 2.286811,0.150696 0.359489,0.184216 0.44665,0.350074 0.44665,0.849921 0,0.487826 -0.08848,0.666028 -0.412804,0.831405 -0.171596,0.0875 -0.445701,0.09534 -3.3357137,0.09542 l -3.148755,8.5e-5 v 0.823232 0.823232 l 2.9851833,-0.03657 c 1.6418514,-0.02011 3.1786754,-0.05907 3.4151654,-0.08656 z"
     id="path4530"
     inkscape:connector-curvature="0" />
</svg>
